<?xml version="1.0" encoding="UTF-8" standalone="no"?>
<!-- Created with Inkscape (http://www.inkscape.org/) -->

<svg
   xmlns:dc="http://purl.org/dc/elements/1.1/"
   xmlns:cc="http://creativecommons.org/ns#"
   xmlns:rdf="http://www.w3.org/1999/02/22-rdf-syntax-ns#"
   xmlns:svg="http://www.w3.org/2000/svg"
   xmlns="http://www.w3.org/2000/svg"
   xmlns:sodipodi="http://sodipodi.sourceforge.net/DTD/sodipodi-0.dtd"
   xmlns:inkscape="http://www.inkscape.org/namespaces/inkscape"
   width="3000"
   height="695.78229"
   viewBox="0 0 793.74998 184.0924"
   version="1.1"
   id="svg8"
   inkscape:version="0.92.1 r15371"
   sodipodi:docname="copec.svg">
  <title
     id="title4566">Copec Logo</title>
  <defs
     id="defs2" />
  <sodipodi:namedview
     id="base"
     pagecolor="#ffffff"
     bordercolor="#666666"
     borderopacity="1.0"
     inkscape:pageopacity="0.0"
     inkscape:pageshadow="2"
     inkscape:zoom="0.81457812"
     inkscape:cx="-405.94793"
     inkscape:cy="207.13985"
     inkscape:document-units="px"
     inkscape:current-layer="layer1"
     showgrid="false"
     units="px"
     inkscape:window-width="1366"
     inkscape:window-height="715"
     inkscape:window-x="-8"
     inkscape:window-y="-8"
     inkscape:window-maximized="1"
     fit-margin-top="20"
     fit-margin-right="20"
     fit-margin-bottom="20"
     fit-margin-left="20" />
  <metadata
     id="metadata5">
    <rdf:RDF>
      <cc:Work
         rdf:about="">
        <dc:format>image/svg+xml</dc:format>
        <dc:type
           rdf:resource="http://purl.org/dc/dcmitype/StillImage" />
        <dc:title>Copec Logo</dc:title>
      </cc:Work>
    </rdf:RDF>
  </metadata>
  <g
     inkscape:label="Capa 1"
     inkscape:groupmode="layer"
     id="layer1"
     transform="translate(-90.957616,-45.190843)">
    <path
       style="opacity:1;fill:#ed1c24;fill-opacity:1;fill-rule:evenodd;stroke:none;stroke-width:0.26458332;stroke-linecap:square;stroke-linejoin:miter;stroke-miterlimit:4;stroke-dasharray:0.26458332, 0.5291665;stroke-dashoffset:0;stroke-opacity:1;paint-order:normal"
       d="m 130.44729,50.48251 c -18.9442,0 -34.198007,15.253806 -34.198007,34.19798 V 189.7936 c 0,18.94418 15.253807,34.19798 34.198007,34.19798 h 85.09666 c 3.9455,0 8.37555,-4.42255 8.37555,-8.36818 v -21.59543 c 0,-3.94591 -4.42964,-8.36832 -8.37555,-8.36832 h -67.74291 c -7.41585,0 -13.38495,-5.97622 -13.38495,-13.3921 v -70.06101 c 0,-7.415871 5.9691,-13.392094 13.38495,-13.392094 h 67.74291 c 3.94591,0 8.37555,-4.422414 8.37555,-8.368324 V 58.850834 c 0,-3.94591 -4.43005,-8.368324 -8.37555,-8.368324 z m 142.14598,0 c -18.94418,0 -34.19798,15.253806 -34.19798,34.19798 V 189.7936 c 0,18.94418 15.2538,34.19798 34.19798,34.19798 h 85.48425 c 18.94417,0 34.19798,-15.2538 34.19798,-34.19798 V 84.68049 c 0,-18.944174 -15.25381,-34.19798 -34.19798,-34.19798 z m 173.96849,0 c -18.94431,0 -34.19798,15.253667 -34.19798,34.19798 v 130.36155 c 0,3.94563 4.42255,8.37541 8.36819,8.37541 h 21.59542 c 3.94591,0 8.36819,-4.42936 8.36819,-8.37541 l -0.16527,-43.76485 H 532.261 c 18.94418,0 34.19076,-15.25367 34.19076,-34.19798 V 84.68049 c 0,-18.944313 -15.24658,-34.19798 -34.19076,-34.19798 z m 169.66941,0 c -18.94431,0 -34.19798,15.253667 -34.19798,34.19798 V 189.7936 c 0,18.94418 15.25367,34.19798 34.19798,34.19798 h 105.35004 c 3.9455,0 8.37541,-4.42269 8.37541,-8.36818 v -21.59543 c 0,-3.94591 -4.4295,-8.36832 -8.37541,-8.36832 h -87.9962 c -7.41588,0 -13.38502,-5.97622 -13.38502,-13.3921 V 155.9545 h 81.7307 c 18.94431,0 34.19089,-15.25367 34.19089,-34.19798 V 84.68049 c 0,-18.944313 -15.24658,-34.19798 -34.19089,-34.19798 z m 169.7126,0 c -18.94418,0 -34.19798,15.253806 -34.19798,34.19798 V 189.7936 c 0,18.94418 15.2538,34.19798 34.19798,34.19798 h 85.09663 c 3.9455,0 8.37555,-4.42255 8.37555,-8.36818 v -21.59543 c 0,-3.94591 -4.42964,-8.36832 -8.37555,-8.36832 h -67.74293 c -7.41574,0 -13.38488,-5.97622 -13.38488,-13.3921 v -70.06101 c 0,-7.415871 5.96914,-13.392094 13.38488,-13.392094 h 67.74293 c 3.94591,0 8.37555,-4.422414 8.37555,-8.368324 V 58.850834 c 0,-3.945632 -4.43005,-8.368324 -8.37555,-8.368324 z M 289.9471,88.814446 h 50.77672 c 7.41573,0 13.38488,5.976223 13.38488,13.392094 v 70.06101 c 0,7.41588 -5.96915,13.3921 -13.38488,13.3921 H 289.9471 c -7.41587,0 -13.38501,-5.97622 -13.38501,-13.3921 v -70.06101 c 0,-7.415871 5.96914,-13.392094 13.38501,-13.392094 z m 173.96836,0 h 50.9849 c 7.41587,-2.78e-4 13.38474,5.969001 13.38487,13.384874 l -0.007,17.36106 c -4.2e-4,7.41573 -5.96206,13.38501 -13.37779,13.38487 h -64.36977 v -30.74593 c 0,-7.415873 5.969,-13.384736 13.38487,-13.384874 z m 169.66955,0 h 50.98476 c 7.41587,-2.78e-4 13.38473,5.969001 13.38501,13.384874 l -0.007,2.03823 c -2.8e-4,7.41587 -5.96206,13.38515 -13.37779,13.38501 h -64.36978 v -15.42324 c 0,-7.415873 5.96914,-13.384736 13.38502,-13.384874 z"
       id="path4561"
       inkscape:connector-curvature="0" />
  </g>
</svg>
